<?xml version="1.0" standalone="no"?>
<?xml-stylesheet type="text/css" href="../style/style.css"?>
<svg width="152" height="44" viewBox="0 0 2150 630" id="svgcolorfill" xmlns="http://www.w3.org/2000/svg">
<path d="M125.45 65.65V228.8C125.45 277.333 108.767 303.55 75.4 307.45C108.767 311.35 125.45 337.35 125.45 385.45V546C125.45 555.967 127.183 562.9 130.65 566.8C134.117 571.133 140.617 573.3 150.15 573.3H235.95V611.65H128.7C107.033 611.65 91.65 606.667 82.55 596.7C73.8833 586.733 69.55 571.35 69.55 550.55V399.1C69.55 373.533 64.7833 355.117 55.25 343.85C46.15 332.15 31.6333 326.3 11.7 326.3H3.68059e-06V287.95H11.7C32.0667 287.95 46.8 282.1 55.9 270.4C65 258.7 69.55 240.067 69.55 214.5V61.1C69.55 40.3 73.8833 24.9167 82.55 14.95C91.65 4.98332 107.033 -1.85966e-05 128.7 -1.85966e-05H235.95V38.35H150.15C140.617 38.35 134.117 40.5167 130.65 44.85C127.183 48.75 125.45 55.6833 125.45 65.65ZM552.058 255.45H496.158V211.25C496.158 203.017 494.858 197.6 492.258 195C489.658 192.4 484.242 191.1 476.008 191.1H338.208C329.975 191.1 324.558 192.4 321.958 195C319.358 197.6 318.058 203.017 318.058 211.25V409.5C318.058 418.167 319.358 423.8 321.958 426.4C324.558 428.567 329.975 429.65 338.208 429.65H476.008C484.242 429.65 489.658 428.567 492.258 426.4C494.858 423.8 496.158 418.167 496.158 409.5V365.3H552.058V416.65C552.058 450.883 534.942 468 500.708 468H313.508C279.275 468 262.158 450.883 262.158 416.65V204.1C262.158 169.867 279.275 152.75 313.508 152.75H500.708C534.942 152.75 552.058 169.867 552.058 204.1V255.45ZM886.768 409.5V211.25C886.768 203.017 885.468 197.6 882.868 195C880.701 192.4 875.284 191.1 866.618 191.1H718.418C709.751 191.1 704.118 192.4 701.518 195C699.351 197.6 698.268 203.017 698.268 211.25V409.5C698.268 418.167 699.351 423.8 701.518 426.4C704.118 428.567 709.751 429.65 718.418 429.65H866.618C875.284 429.65 880.701 428.567 882.868 426.4C885.468 423.8 886.768 418.167 886.768 409.5ZM694.368 152.75H890.668C924.901 152.75 942.018 169.867 942.018 204.1V416.65C942.018 450.883 924.901 468 890.668 468H694.368C660.134 468 643.018 450.883 643.018 416.65V204.1C643.018 169.867 660.134 152.75 694.368 152.75ZM1122.14 429.65H1265.14C1272.94 429.65 1278.58 427.917 1282.04 424.45C1285.51 420.983 1287.24 415.133 1287.24 406.9V213.85C1287.24 205.617 1285.51 199.767 1282.04 196.3C1278.58 192.833 1272.94 191.1 1265.14 191.1H1122.14C1113.91 191.1 1108.49 192.4 1105.89 195C1103.29 197.6 1101.99 203.017 1101.99 211.25V409.5C1101.99 418.167 1103.29 423.8 1105.89 426.4C1108.49 428.567 1113.91 429.65 1122.14 429.65ZM1287.24 33.15H1343.14V468H1287.24V447.2C1281.61 461.067 1269.69 468 1251.49 468H1097.44C1063.21 468 1046.09 450.883 1046.09 416.65V204.1C1046.09 169.867 1063.21 152.75 1097.44 152.75H1251.49C1269.69 152.75 1281.61 159.683 1287.24 173.55V33.15ZM1509.51 287.3H1701.91V211.25C1701.91 203.017 1700.61 197.6 1698.01 195C1695.41 192.4 1690 191.1 1681.76 191.1H1529.66C1521.43 191.1 1516.01 192.4 1513.41 195C1510.81 197.6 1509.51 203.017 1509.51 211.25V287.3ZM1504.96 152.75H1705.81C1740.05 152.75 1757.16 169.867 1757.16 204.1V325.65H1509.51V409.5C1509.51 418.167 1510.81 423.8 1513.41 426.4C1516.01 428.567 1521.43 429.65 1529.66 429.65H1679.81C1688.48 429.65 1693.9 428.567 1696.06 426.4C1698.66 423.8 1699.96 418.167 1699.96 409.5V378.95H1755.21V416.65C1755.21 450.883 1738.1 468 1703.86 468H1504.96C1470.73 468 1453.61 450.883 1453.61 416.65V204.1C1453.61 169.867 1470.73 152.75 1504.96 152.75ZM1841.79 468V392.6H1906.14V468H1841.79ZM2029.47 228.8V65.65C2029.47 55.6833 2027.74 48.75 2024.27 44.85C2020.81 40.5167 2014.31 38.35 2004.77 38.35H1918.97V-1.85966e-05H2026.22C2047.89 -1.85966e-05 2063.06 4.98332 2071.72 14.95C2080.82 24.9167 2085.37 40.3 2085.37 61.1V214.5C2085.37 240.067 2089.92 258.7 2099.02 270.4C2108.12 282.1 2122.86 287.95 2143.22 287.95H2154.92V326.3H2143.22C2123.29 326.3 2108.56 332.15 2099.02 343.85C2089.92 355.117 2085.37 373.533 2085.37 399.1V550.55C2085.37 571.35 2080.82 586.733 2071.72 596.7C2063.06 606.667 2047.89 611.65 2026.22 611.65H1918.97V573.3H2004.77C2014.31 573.3 2020.81 571.133 2024.27 566.8C2027.74 562.9 2029.47 555.967 2029.47 546V385.45C2029.47 337.35 2046.16 311.35 2079.52 307.45C2046.16 303.55 2029.47 277.333 2029.47 228.8Z"/>
</svg>
