<?xml version="1.0" standalone="no"?>
<?xml-stylesheet type="text/css" href="../style/style.css"?>
<svg width="125" height="188" viewBox="0 0 125 188" id="svgcolorfill" fill="none" xmlns="http://www.w3.org/2000/svg">
<path d="M62.5002 0C28.0382 0 0 28.0382 0 62.5002C0 72.8457 2.58655 83.1033 7.50367 92.2014L59.0824 185.486C59.769 186.73 61.0775 187.5 62.5002 187.5C63.9229 187.5 65.2314 186.73 65.9181 185.486L117.516 92.1707C122.414 83.1033 125 72.8453 125 62.4998C125 28.0382 96.9622 0 62.5002 0ZM62.5002 93.7501C45.2692 93.7501 31.2503 79.7312 31.2503 62.5002C31.2503 45.2692 45.2692 31.2503 62.5002 31.2503C79.7312 31.2503 93.7501 45.2692 93.7501 62.5002C93.7501 79.7312 79.7312 93.7501 62.5002 93.7501Z" fill=""/>
</svg>
